<svg xmlns="http://www.w3.org/2000/svg" width="35" height="35.556" viewBox="0 0 35 35.556"><defs><style>.a{fill:#37b34a;}</style></defs><g transform="translate(-0.977)"><g transform="translate(0.977)"><path class="a" d="M41.272,59.19l-.54,3.205a1.169,1.169,0,0,0,1.694,1.231l2.882-1.5,2.882,1.5A1.169,1.169,0,0,0,49.885,62.4l-.539-3.205,2.32-2.276a1.169,1.169,0,0,0-.647-1.992L47.8,54.445l-1.448-2.911a1.17,1.17,0,0,0-2.095,0l-1.447,2.911-3.215.477a1.17,1.17,0,0,0-.647,1.992Z" transform="translate(-27.809 -36.299)"/><path class="a" d="M32.446,3.78H28.724V1.716A1.716,1.716,0,0,0,27.008,0h-.272a1.715,1.715,0,0,0-1.715,1.716V3.78H11.889V1.716A1.715,1.715,0,0,0,10.174,0H9.9A1.715,1.715,0,0,0,8.186,1.716V3.78H4.508A3.535,3.535,0,0,0,.977,7.311V32.026a3.535,3.535,0,0,0,3.531,3.531H32.446a3.535,3.535,0,0,0,3.531-3.531V7.311A3.535,3.535,0,0,0,32.446,3.78Zm-.461,27.785H4.968V12.326H31.985Z" transform="translate(-0.977)"/></g></g></svg>