<svg xmlns="http://www.w3.org/2000/svg" width="35" height="35" viewBox="0 0 35 35"><defs><style>.a{fill:#37b34a;}</style></defs><g transform="translate(0)"><path class="a" d="M362.024,4.1h1.024V5.121a1.024,1.024,0,0,0,2.048,0V4.1h1.024a1.024,1.024,0,1,0,0-2.048H365.1V1.024a1.024,1.024,0,0,0-2.048,0V2.048h-1.024a1.024,1.024,0,1,0,0,2.048Z" transform="translate(-336.31)"/><path class="a" d="M62.024,64.1h1.024v1.024a1.024,1.024,0,1,0,2.048,0V64.1h1.024a1.024,1.024,0,1,0,0-2.048H65.1V61.024a1.024,1.024,0,0,0-2.048,0v1.024H62.024a1.024,1.024,0,1,0,0,2.048Z" transform="translate(-56.835 -55.903)"/><path class="a" d="M151,13.895a4.7,4.7,0,0,0,.774,2.56h12.791a4.7,4.7,0,0,0,.774-2.56c0-2.9-4.429-6.158-6.145-7.284V5.95a3.044,3.044,0,0,0,1.724-1.5,1.024,1.024,0,0,0-1.832-.916,1.024,1.024,0,1,1-.916-1.482,1.024,1.024,0,0,0,0-2.048,3.065,3.065,0,0,0-1.024,5.956V6.61C155.429,7.737,151,11,151,13.895Z" transform="translate(-140.669)"/><path class="a" d="M34.055,221.244a1.018,1.018,0,0,0-1.1.646c-2.321,6.029-9.292,10.934-15.456,10.934s-13.135-4.9-15.456-10.934a1.015,1.015,0,0,0-1.1-.646,1.025,1.025,0,0,0-.88.921Q0,222.884,0,223.607c0,9.113,8.377,17.479,17.5,17.479S35,232.719,35,223.607q0-.722-.065-1.441A1.025,1.025,0,0,0,34.055,221.244Z" transform="translate(0 -206.086)"/><path class="a" d="M153.048,271v2.048h-1.024A1.024,1.024,0,0,0,151,274.073v.71a12.059,12.059,0,0,0,14.339,0v-.71a1.024,1.024,0,0,0-1.024-1.024H163.29V271Z" transform="translate(-140.669 -252.47)"/></g></svg>