<svg xmlns="http://www.w3.org/2000/svg" width="35" height="32.642" viewBox="0 0 35 32.642"><defs><style>.a{fill:#37b34a;}.b{fill:#fff;}</style></defs><g transform="translate(0 -17.247)"><g transform="translate(0 17.247)"><path class="a" d="M33.613,17.247H9.062a1.387,1.387,0,0,0-1.387,1.387V31.719H5.225A5.231,5.231,0,0,0,0,36.943v7.721a5.226,5.226,0,0,0,5.92,5.178H28.8a6.2,6.2,0,0,0,6.2-6.2V18.634A1.387,1.387,0,0,0,33.613,17.247ZM7.675,44.664a2.455,2.455,0,0,1-1.976,2.4H5.225v.046a2.453,2.453,0,0,1-2.45-2.45V36.943a2.454,2.454,0,0,1,2.45-2.45h2.45V44.664Z" transform="translate(0 -17.247)"/></g><g transform="translate(13.917 25.939)"><path class="b" d="M213.661,144.4h-8.692a1.387,1.387,0,1,0,0,2.774h8.692a1.387,1.387,0,1,0,0-2.774Z" transform="translate(-203.582 -144.402)"/></g><g transform="translate(13.917 32.643)"><path class="b" d="M216.99,242.473H204.969a1.387,1.387,0,1,0,0,2.774H216.99a1.387,1.387,0,1,0,0-2.774Z" transform="translate(-203.582 -242.473)"/></g><g transform="translate(13.917 38.932)"><path class="b" d="M213.661,334.464h-8.692a1.387,1.387,0,1,0,0,2.774h8.692a1.387,1.387,0,1,0,0-2.774Z" transform="translate(-203.582 -334.464)"/></g></g></svg>